<svg id="svg" version="1.1" xmlns="http://www.w3.org/2000/svg" xmlns:xlink="http://www.w3.org/1999/xlink" width="400" height="400" viewBox="0, 0, 400,400"><g id="svgg"><path id="path0" d="M259.340 14.923 C 245.485 16.098,232.209 26.562,227.739 39.830 C 226.162 44.511,226.121 45.464,226.154 76.509 L 226.187 106.729 224.648 104.830 C 223.802 103.785,222.673 102.402,222.139 101.758 C 221.605 101.114,221.266 100.427,221.387 100.233 C 221.507 100.038,221.440 99.981,221.238 100.106 C 221.036 100.231,219.558 99.280,217.955 97.993 C 202.917 85.919,182.570 85.387,167.249 96.665 C 158.979 102.753,153.004 112.378,151.456 122.105 L 151.016 124.874 148.262 122.546 C 146.747 121.266,144.757 119.745,143.839 119.167 C 142.922 118.589,142.307 117.966,142.472 117.784 C 142.638 117.602,142.570 117.570,142.320 117.712 C 141.725 118.053,140.566 117.599,140.852 117.137 C 140.974 116.939,140.929 116.811,140.752 116.851 C 140.175 116.983,138.282 116.330,138.451 116.058 C 138.541 115.912,138.320 115.776,137.960 115.755 C 137.599 115.735,136.309 115.349,135.092 114.899 C 133.875 114.448,131.721 113.859,130.307 113.591 C 128.892 113.323,127.734 113.011,127.734 112.899 C 127.734 112.787,125.493 112.710,122.754 112.727 C 115.174 112.776,109.715 114.103,103.681 117.365 C 101.919 118.318,100.342 118.975,100.176 118.826 C 100.010 118.677,100.001 118.774,100.156 119.043 C 100.310 119.312,100.272 119.531,100.071 119.531 C 99.437 119.531,94.182 124.614,92.339 127.009 C 86.610 134.456,84.345 142.335,84.586 153.984 L 84.697 159.335 83.266 160.425 C 73.255 168.058,66.680 180.821,65.597 194.727 C 64.906 203.596,65.331 262.880,66.131 269.229 C 67.777 282.289,70.436 293.162,74.361 302.885 C 75.132 304.793,75.651 306.551,75.514 306.791 C 75.377 307.030,75.392 307.113,75.547 306.975 C 75.871 306.685,82.203 318.980,82.271 320.032 C 82.296 320.415,82.456 320.854,82.627 321.008 C 82.797 321.163,82.827 320.981,82.692 320.605 C 82.267 319.421,82.688 319.854,84.024 321.973 C 86.608 326.072,92.219 333.110,96.454 337.564 C 98.836 340.070,100.653 342.195,100.491 342.285 C 100.328 342.376,100.388 342.407,100.623 342.354 C 101.187 342.228,106.477 346.833,106.338 347.330 C 106.279 347.541,106.402 347.609,106.611 347.479 C 106.820 347.350,108.194 348.172,109.663 349.306 C 111.132 350.439,113.512 352.134,114.952 353.071 C 116.403 354.015,117.458 354.956,117.319 355.182 C 117.176 355.413,117.255 355.473,117.501 355.321 C 117.741 355.173,119.482 355.920,121.370 356.981 C 123.259 358.041,125.981 359.486,127.419 360.192 C 128.857 360.897,129.958 361.597,129.865 361.748 C 129.772 361.898,129.914 361.997,130.180 361.968 C 130.993 361.878,138.261 364.951,138.049 365.294 C 137.939 365.471,138.081 365.527,138.363 365.419 C 139.081 365.144,145.006 367.357,144.637 367.763 C 144.471 367.945,144.542 367.976,144.794 367.831 C 145.047 367.687,147.820 368.285,150.957 369.161 C 189.853 380.022,237.274 377.142,268.682 362.011 C 270.975 360.906,273.083 360.019,273.366 360.040 C 273.649 360.061,273.781 359.979,273.659 359.857 C 273.538 359.736,274.523 359.035,275.849 358.300 C 277.176 357.565,279.584 356.071,281.201 354.979 C 282.819 353.888,284.363 352.995,284.632 352.995 C 284.901 352.995,285.020 352.829,284.895 352.627 C 284.761 352.412,285.051 352.368,285.596 352.523 C 286.177 352.687,286.339 352.657,286.030 352.441 C 285.679 352.196,286.695 351.201,289.546 348.999 C 294.654 345.053,303.924 335.779,308.162 330.376 C 309.965 328.077,311.618 326.305,311.835 326.439 C 312.052 326.573,312.115 326.497,311.974 326.269 C 311.833 326.041,312.864 324.141,314.264 322.046 C 319.500 314.215,327.699 297.150,328.750 291.897 C 328.888 291.204,329.144 290.726,329.317 290.833 C 329.491 290.940,329.761 290.823,329.916 290.571 C 330.101 290.272,330.029 290.219,329.706 290.418 C 329.354 290.636,329.278 290.514,329.440 289.990 C 343.479 244.633,336.587 207.308,309.090 179.788 L 303.141 173.834 303.128 112.991 C 303.113 42.720,303.207 44.733,299.590 37.147 C 295.280 28.106,287.119 20.593,277.998 17.269 C 276.456 16.707,275.107 16.151,275.000 16.034 C 274.893 15.916,274.629 15.817,274.414 15.813 C 274.199 15.809,272.617 15.587,270.898 15.320 C 266.828 14.687,263.478 14.572,259.340 14.923 M268.135 27.154 C 276.770 28.660,284.057 33.965,287.855 41.510 C 290.736 47.233,290.581 43.625,290.707 108.023 L 290.820 165.852 286.523 162.955 C 284.160 161.361,278.887 157.564,274.805 154.515 C 257.654 141.708,247.352 135.145,241.016 132.991 L 238.477 132.128 238.477 89.794 L 238.477 47.461 239.343 44.727 C 243.269 32.334,255.396 24.933,268.135 27.154 M200.352 102.534 C 211.554 106.370,218.336 116.183,218.354 128.577 L 218.359 132.741 215.723 134.185 C 197.786 144.010,190.778 165.014,198.436 185.996 C 201.356 193.998,208.741 204.047,215.186 208.789 C 219.033 211.620,214.658 223.744,207.744 229.409 C 193.041 241.457,172.978 235.939,166.152 217.969 L 165.039 215.039 164.934 169.235 C 164.842 129.381,164.905 123.099,165.422 120.872 C 167.609 111.441,175.566 103.821,185.742 101.412 C 188.451 100.770,197.153 101.439,200.352 102.534 M128.298 125.776 C 136.851 127.963,143.315 134.263,146.342 143.359 C 147.355 146.405,147.676 213.706,146.700 218.388 C 142.106 240.422,113.200 246.298,101.147 227.648 C 96.797 220.919,96.828 221.265,96.959 180.442 L 97.070 145.508 98.207 142.254 C 102.668 129.479,115.438 122.486,128.298 125.776 M234.541 143.954 C 239.627 145.279,247.098 149.921,266.016 163.514 C 271.709 167.605,278.828 172.593,281.836 174.600 C 314.247 196.223,327.739 223.425,323.109 257.813 C 313.773 327.160,271.706 363.236,200.391 363.054 C 134.512 362.885,91.269 331.883,80.296 276.953 C 77.608 263.496,77.545 262.295,77.542 224.023 L 77.539 189.258 78.583 185.530 C 80.047 180.299,83.450 173.047,84.440 173.047 C 84.600 173.047,84.792 183.550,84.867 196.387 C 85.016 222.051,84.900 220.719,87.579 227.486 C 99.589 257.817,141.030 259.011,155.878 229.454 L 157.316 226.592 158.053 228.233 C 167.545 249.397,199.196 254.526,216.733 237.743 C 222.206 232.505,227.734 222.770,227.734 218.370 C 227.734 217.792,228.699 218.198,232.881 220.531 C 237.267 222.979,242.128 225.286,245.104 226.333 C 245.713 226.547,245.022 227.054,241.784 228.769 C 205.774 247.844,187.699 275.450,187.725 311.328 C 187.738 328.485,189.324 333.206,195.077 333.202 C 199.992 333.198,202.054 329.810,200.892 323.645 C 200.050 319.172,199.924 302.569,200.699 298.047 C 205.749 268.570,226.296 247.181,262.775 233.428 C 266.342 232.083,267.355 231.275,268.180 229.114 C 269.830 224.795,268.264 223.067,259.522 219.558 C 230.476 207.901,211.499 191.396,208.363 175.063 C 204.968 157.384,219.554 140.051,234.541 143.954 M64.544 224.609 C 64.544 225.361,64.624 225.669,64.722 225.293 C 64.821 224.917,64.821 224.302,64.722 223.926 C 64.624 223.550,64.544 223.857,64.544 224.609 M64.581 241.211 C 64.583 242.715,64.654 243.282,64.738 242.472 C 64.823 241.661,64.821 240.431,64.735 239.737 C 64.649 239.044,64.580 239.707,64.581 241.211 " stroke="none" fill="#fbfbfb" fill-rule="evenodd"></path><path id="path1" d="M183.594 102.087 C 174.655 104.753,167.873 111.717,165.614 120.551 C 164.383 125.362,164.416 211.559,165.650 216.013 C 172.055 239.125,202.429 242.886,213.586 221.947 C 215.933 217.541,217.743 209.766,216.421 209.766 C 215.771 209.766,208.568 202.669,206.185 199.681 C 188.267 177.216,193.134 145.557,216.309 133.837 L 218.359 132.799 218.359 128.767 C 218.359 110.052,201.156 96.850,183.594 102.087 M115.766 125.774 C 107.062 128.056,100.331 134.796,97.781 143.784 C 96.687 147.641,96.686 216.007,97.780 219.922 C 104.658 244.531,137.166 245.277,146.024 221.029 L 147.070 218.164 147.070 182.227 C 147.070 148.548,147.025 146.129,146.353 143.750 C 142.562 130.322,128.945 122.319,115.766 125.774 " stroke="none" fill="#c91b42" fill-rule="evenodd"></path><path id="path2" d="M259.617 27.326 C 259.917 27.625,254.924 28.895,254.309 28.678 C 253.993 28.566,253.852 28.591,253.995 28.734 C 254.327 29.067,250.758 30.891,250.313 30.616 C 250.130 30.503,250.029 30.643,250.088 30.928 C 250.147 31.214,249.892 31.421,249.516 31.392 C 249.142 31.362,248.927 31.485,249.039 31.665 C 249.226 31.969,247.827 32.963,247.168 32.994 C 247.007 33.002,246.919 33.125,246.973 33.269 C 247.134 33.701,245.226 35.540,244.855 35.310 C 244.666 35.194,244.554 35.243,244.605 35.420 C 244.770 35.995,243.722 37.529,243.330 37.287 C 243.121 37.157,242.975 37.196,243.005 37.373 C 243.150 38.206,242.927 38.692,242.518 38.439 C 242.247 38.272,242.172 38.332,242.331 38.588 C 242.668 39.133,241.251 41.502,240.821 41.112 C 240.644 40.952,240.613 41.018,240.751 41.260 C 241.042 41.770,239.740 45.859,239.396 45.516 C 239.269 45.389,239.256 45.757,239.366 46.334 C 239.477 46.917,239.408 47.284,239.210 47.161 C 239.009 47.037,238.909 47.653,238.981 48.568 C 239.052 49.472,238.968 49.995,238.793 49.744 C 238.619 49.496,238.523 67.777,238.579 90.369 C 238.646 117.142,238.817 131.491,239.070 131.576 C 239.283 131.648,239.369 131.852,239.260 132.028 C 239.151 132.205,239.441 132.250,239.904 132.129 C 240.444 131.987,240.655 132.058,240.490 132.324 C 240.326 132.590,240.536 132.660,241.076 132.519 C 241.608 132.380,241.826 132.450,241.667 132.707 C 241.528 132.931,241.632 133.107,241.899 133.097 C 243.152 133.052,243.775 133.237,243.557 133.589 C 243.416 133.819,243.591 133.871,243.989 133.718 C 244.441 133.545,244.568 133.609,244.380 133.914 C 244.191 134.218,244.319 134.282,244.770 134.109 C 245.222 133.935,245.349 133.999,245.161 134.304 C 244.972 134.609,245.100 134.673,245.552 134.499 C 246.003 134.326,246.131 134.390,245.942 134.695 C 245.754 135.000,245.881 135.063,246.333 134.890 C 246.785 134.717,246.912 134.780,246.723 135.085 C 246.535 135.390,246.662 135.454,247.114 135.281 C 247.605 135.092,247.699 135.162,247.465 135.541 C 247.252 135.885,247.296 135.965,247.595 135.780 C 248.127 135.452,249.733 136.465,249.326 136.872 C 249.173 137.025,249.378 137.024,249.783 136.868 C 250.302 136.669,250.434 136.724,250.230 137.053 C 250.072 137.309,250.087 137.480,250.264 137.432 C 250.897 137.261,252.351 137.954,252.125 138.319 C 251.999 138.524,252.040 138.666,252.217 138.635 C 252.957 138.507,253.548 138.694,253.361 138.997 C 253.250 139.176,253.402 139.323,253.699 139.323 C 254.537 139.323,259.395 142.621,259.147 143.022 C 259.026 143.218,259.071 143.354,259.248 143.323 C 260.046 143.184,260.572 143.394,260.346 143.760 C 260.210 143.980,260.243 144.135,260.420 144.104 C 261.218 143.965,261.744 144.175,261.517 144.541 C 261.381 144.761,261.415 144.916,261.592 144.885 C 262.424 144.741,262.911 144.963,262.658 145.373 C 262.500 145.628,262.549 145.719,262.772 145.581 C 263.190 145.323,265.746 147.014,265.424 147.336 C 265.320 147.441,265.460 147.526,265.735 147.526 C 266.524 147.526,268.376 148.875,268.132 149.271 C 268.010 149.468,268.056 149.596,268.233 149.557 C 268.895 149.410,269.908 150.099,269.662 150.529 C 269.521 150.775,269.545 150.851,269.715 150.697 C 270.190 150.269,271.545 151.143,271.237 151.680 C 271.089 151.938,271.108 152.023,271.278 151.869 C 271.707 151.481,273.123 152.295,272.833 152.764 C 272.704 152.973,272.743 153.119,272.920 153.088 C 273.779 152.939,274.241 153.167,273.984 153.613 C 273.829 153.882,273.842 153.976,274.012 153.822 C 274.470 153.409,275.848 154.264,275.537 154.767 C 275.390 155.005,275.432 155.099,275.630 154.976 C 276.104 154.683,278.976 156.831,278.606 157.202 C 278.449 157.359,278.496 157.444,278.711 157.392 C 279.398 157.226,280.473 157.880,280.211 158.304 C 280.071 158.530,280.134 158.605,280.350 158.472 C 280.720 158.243,283.298 159.857,283.100 160.194 C 283.049 160.281,283.075 160.314,283.157 160.268 C 283.531 160.057,284.762 161.019,284.552 161.357 C 284.423 161.567,284.462 161.713,284.639 161.682 C 285.437 161.544,285.962 161.753,285.736 162.119 C 285.600 162.339,285.634 162.494,285.811 162.463 C 286.609 162.325,287.134 162.534,286.908 162.900 C 286.772 163.120,286.806 163.275,286.983 163.245 C 287.740 163.113,288.312 163.307,288.113 163.628 C 287.995 163.818,288.205 163.950,288.578 163.921 C 288.952 163.891,289.216 164.081,289.165 164.341 C 289.111 164.615,289.317 164.721,289.653 164.593 C 290.164 164.397,290.234 157.613,290.234 108.601 C 290.234 77.928,290.320 52.239,290.424 51.514 C 290.587 50.387,290.564 50.337,290.268 51.172 C 289.922 52.146,289.729 50.867,289.669 47.204 C 289.659 46.633,289.491 46.265,289.296 46.386 C 289.100 46.508,289.039 46.227,289.160 45.764 C 289.301 45.224,289.231 45.013,288.965 45.178 C 288.696 45.344,288.630 45.124,288.779 44.554 C 288.906 44.069,288.901 43.781,288.769 43.913 C 288.418 44.265,287.458 41.790,287.758 41.306 C 287.900 41.075,287.826 41.010,287.588 41.156 C 287.184 41.406,286.467 40.006,286.651 39.326 C 286.699 39.149,286.558 39.116,286.338 39.252 C 285.972 39.478,285.762 38.952,285.901 38.155 C 285.932 37.977,285.795 37.933,285.597 38.055 C 285.263 38.262,284.704 37.416,284.586 36.523 C 284.558 36.309,284.348 36.168,284.120 36.212 C 283.646 36.302,281.545 34.228,281.603 33.728 C 281.623 33.547,281.509 33.383,281.348 33.365 C 280.512 33.268,279.723 32.681,279.945 32.321 C 280.085 32.095,280.028 32.016,279.820 32.145 C 279.611 32.274,278.661 31.862,277.708 31.229 C 276.756 30.597,275.404 29.889,274.703 29.657 C 274.003 29.424,273.520 29.089,273.630 28.911 C 273.739 28.734,273.450 28.688,272.986 28.809 C 272.446 28.950,272.236 28.880,272.400 28.614 C 272.565 28.347,272.355 28.277,271.814 28.418 C 271.351 28.540,271.070 28.479,271.191 28.284 C 271.311 28.089,270.855 27.901,270.178 27.865 C 269.500 27.829,266.806 27.653,264.192 27.474 C 261.578 27.295,259.519 27.229,259.617 27.326 M229.297 143.795 C 227.900 143.980,226.529 144.047,226.249 143.945 C 225.942 143.833,225.850 143.936,226.017 144.207 C 226.207 144.514,226.018 144.582,225.413 144.424 C 224.929 144.297,224.639 144.301,224.771 144.432 C 225.138 144.799,221.481 146.526,220.964 146.230 C 220.713 146.086,220.641 146.115,220.804 146.295 C 221.177 146.705,219.128 148.085,218.616 147.769 C 218.409 147.641,218.359 147.730,218.505 147.967 C 218.758 148.376,217.438 149.371,216.602 149.400 C 216.387 149.408,216.208 149.590,216.205 149.805 C 216.195 150.451,215.593 151.198,215.252 150.987 C 215.076 150.879,214.715 151.052,214.450 151.371 C 214.184 151.691,214.082 151.953,214.224 151.953 C 214.365 151.953,214.290 152.310,214.057 152.745 C 213.823 153.181,213.461 153.432,213.252 153.302 C 213.043 153.173,212.896 153.212,212.927 153.389 C 213.066 154.187,212.856 154.712,212.490 154.486 C 212.270 154.350,212.115 154.384,212.146 154.561 C 212.283 155.348,212.077 155.886,211.723 155.667 C 211.494 155.525,211.442 155.700,211.594 156.098 C 211.768 156.550,211.704 156.678,211.399 156.489 C 211.094 156.301,211.030 156.428,211.204 156.880 C 211.377 157.331,211.313 157.459,211.008 157.270 C 210.703 157.082,210.640 157.209,210.813 157.661 C 211.001 158.152,210.932 158.246,210.553 158.012 C 210.207 157.798,210.129 157.843,210.316 158.146 C 210.669 158.716,210.215 160.239,209.774 159.966 C 209.595 159.855,209.547 160.144,209.668 160.607 C 209.803 161.124,209.736 161.356,209.493 161.206 C 209.248 161.054,209.172 161.350,209.293 161.984 C 209.412 162.610,209.337 162.913,209.097 162.765 C 208.858 162.617,208.782 162.921,208.902 163.546 C 209.010 164.109,208.940 164.472,208.748 164.353 C 208.556 164.234,208.398 164.955,208.398 165.955 C 208.398 166.955,208.281 168.740,208.137 169.922 C 207.993 171.104,208.008 171.726,208.171 171.305 C 208.370 170.788,208.552 171.464,208.731 173.384 C 208.876 174.949,208.878 176.419,208.734 176.651 C 208.567 176.921,208.658 176.959,208.986 176.757 C 209.370 176.519,209.441 176.660,209.268 177.321 C 209.141 177.806,209.144 178.095,209.275 177.965 C 209.625 177.614,210.574 180.567,210.327 181.238 C 210.210 181.554,210.244 181.683,210.402 181.525 C 210.774 181.153,212.533 184.787,212.224 185.288 C 212.083 185.515,212.196 185.539,212.506 185.348 C 212.885 185.114,212.954 185.208,212.766 185.698 C 212.613 186.097,212.666 186.272,212.895 186.130 C 213.249 185.911,213.455 186.448,213.318 187.236 C 213.287 187.413,213.442 187.447,213.662 187.311 C 214.028 187.084,214.238 187.610,214.099 188.408 C 214.068 188.585,214.223 188.619,214.443 188.483 C 214.664 188.346,214.866 188.421,214.893 188.649 C 214.919 188.876,214.963 189.282,214.990 189.551 C 215.017 189.819,215.255 190.039,215.520 190.039 C 215.784 190.039,216.278 190.435,216.616 190.918 C 216.955 191.401,217.107 191.797,216.954 191.797 C 216.801 191.797,216.990 192.144,217.374 192.569 C 217.759 192.994,218.198 193.264,218.350 193.170 C 218.502 193.076,219.216 193.608,219.937 194.351 C 220.657 195.095,221.097 195.703,220.915 195.703 C 220.732 195.703,220.894 196.048,221.275 196.469 C 221.656 196.890,222.102 197.198,222.265 197.152 C 222.799 197.005,225.028 198.857,224.787 199.248 C 224.657 199.457,224.696 199.587,224.873 199.536 C 225.448 199.371,226.982 200.418,226.740 200.811 C 226.610 201.020,226.649 201.159,226.826 201.120 C 227.489 200.972,228.502 201.661,228.255 202.092 C 228.115 202.338,228.139 202.413,228.309 202.260 C 228.739 201.872,230.154 202.686,229.865 203.154 C 229.735 203.364,229.774 203.510,229.951 203.479 C 230.810 203.330,231.272 203.558,231.015 204.004 C 230.861 204.272,230.873 204.367,231.043 204.213 C 231.473 203.825,232.888 204.639,232.599 205.107 C 232.470 205.317,232.509 205.463,232.686 205.432 C 233.484 205.294,234.009 205.503,233.783 205.869 C 233.647 206.089,233.681 206.244,233.858 206.213 C 234.655 206.075,235.181 206.284,234.955 206.650 C 234.819 206.870,234.852 207.025,235.030 206.995 C 235.862 206.850,236.349 207.073,236.096 207.482 C 235.923 207.761,235.988 207.827,236.267 207.655 C 236.762 207.349,238.393 208.312,238.083 208.726 C 237.977 208.868,238.004 208.900,238.144 208.796 C 238.525 208.514,241.405 210.233,241.175 210.605 C 241.065 210.783,241.277 210.813,241.645 210.671 C 242.136 210.483,242.230 210.553,241.996 210.931 C 241.794 211.258,241.828 211.355,242.089 211.194 C 242.602 210.877,245.810 212.653,245.423 213.041 C 245.268 213.196,245.472 213.195,245.877 213.040 C 246.385 212.845,246.526 212.898,246.333 213.210 C 246.144 213.515,246.272 213.579,246.723 213.406 C 247.175 213.232,247.303 213.296,247.114 213.601 C 246.926 213.906,247.053 213.970,247.505 213.796 C 247.956 213.623,248.084 213.687,247.895 213.992 C 247.707 214.297,247.834 214.360,248.286 214.187 C 248.738 214.014,248.865 214.077,248.677 214.382 C 248.488 214.687,248.616 214.751,249.067 214.578 C 249.519 214.404,249.646 214.468,249.458 214.773 C 249.269 215.078,249.397 215.142,249.848 214.968 C 250.300 214.795,250.428 214.859,250.239 215.164 C 250.051 215.468,250.178 215.532,250.630 215.359 C 251.121 215.171,251.214 215.240,250.980 215.619 C 250.780 215.943,250.812 216.042,251.067 215.885 C 251.615 215.546,253.961 216.392,253.690 216.830 C 253.572 217.022,253.777 217.063,254.145 216.921 C 254.567 216.759,254.721 216.817,254.560 217.077 C 254.420 217.304,254.523 217.482,254.789 217.472 C 256.043 217.427,256.666 217.612,256.448 217.964 C 256.306 218.194,256.482 218.246,256.880 218.093 C 257.371 217.905,257.464 217.975,257.230 218.353 C 257.017 218.699,257.061 218.777,257.365 218.590 C 258.004 218.195,259.441 218.717,259.125 219.229 C 258.969 219.482,259.046 219.539,259.318 219.371 C 259.888 219.019,261.410 219.473,261.138 219.914 C 261.027 220.093,261.316 220.140,261.779 220.019 C 262.311 219.880,262.529 219.950,262.370 220.207 C 262.231 220.431,262.336 220.607,262.602 220.597 C 263.938 220.549,264.479 220.735,264.221 221.154 C 264.050 221.429,264.113 221.499,264.381 221.333 C 265.381 220.716,268.676 223.391,268.087 224.343 C 267.956 224.556,268.033 224.616,268.258 224.477 C 268.484 224.337,268.774 224.500,268.904 224.839 C 269.276 225.807,269.180 228.977,268.786 228.733 C 268.592 228.613,268.520 228.850,268.627 229.260 C 269.065 230.935,262.795 235.087,261.261 234.138 C 260.988 233.970,260.924 234.038,261.096 234.315 C 261.354 234.733,260.813 234.919,259.477 234.871 C 259.211 234.862,259.089 235.010,259.207 235.200 C 259.403 235.518,258.740 235.696,257.524 235.653 C 257.257 235.643,257.136 235.791,257.254 235.982 C 257.450 236.299,256.787 236.478,255.571 236.434 C 255.304 236.424,255.172 236.555,255.277 236.725 C 255.531 237.136,253.148 237.951,252.629 237.630 C 252.375 237.473,252.343 237.573,252.543 237.897 C 252.777 238.275,252.683 238.345,252.192 238.157 C 251.741 237.983,251.613 238.047,251.802 238.352 C 251.990 238.657,251.863 238.721,251.411 238.547 C 251.042 238.406,250.833 238.440,250.946 238.623 C 251.164 238.975,245.847 241.583,245.024 241.527 C 244.757 241.509,244.654 241.680,244.795 241.907 C 244.955 242.167,244.802 242.225,244.380 242.063 C 243.928 241.890,243.801 241.953,243.989 242.258 C 244.182 242.571,244.042 242.624,243.533 242.429 C 243.128 242.273,242.923 242.272,243.076 242.425 C 243.483 242.832,241.877 243.845,241.345 243.517 C 241.046 243.332,241.002 243.412,241.215 243.756 C 241.454 244.144,241.350 244.203,240.799 243.991 C 240.394 243.836,240.188 243.834,240.341 243.987 C 240.748 244.394,239.142 245.408,238.611 245.079 C 238.332 244.907,238.267 244.973,238.439 245.252 C 238.702 245.678,238.177 245.893,237.305 245.717 C 237.090 245.673,237.047 245.771,237.210 245.934 C 237.593 246.317,235.520 247.686,235.023 247.378 C 234.815 247.250,234.770 247.348,234.924 247.596 C 235.177 248.005,234.690 248.228,233.858 248.083 C 233.681 248.053,233.635 248.188,233.757 248.385 C 233.999 248.777,232.153 250.130,231.377 250.130 C 231.111 250.130,230.979 250.268,231.083 250.436 C 231.260 250.722,229.645 251.811,229.362 251.596 C 229.290 251.542,229.115 251.628,228.971 251.788 C 228.828 251.948,228.975 251.947,229.297 251.787 C 229.619 251.626,229.448 251.848,228.916 252.280 C 228.384 252.713,227.768 253.035,227.548 252.998 C 227.328 252.960,227.189 253.140,227.239 253.396 C 227.325 253.840,225.132 255.662,224.512 255.663 C 224.351 255.664,224.214 255.840,224.208 256.055 C 224.194 256.611,219.453 261.326,219.117 261.118 C 218.964 261.024,218.621 261.208,218.356 261.528 C 218.090 261.848,217.994 262.109,218.143 262.109 C 218.291 262.109,218.039 262.633,217.583 263.274 C 217.127 263.915,216.567 264.398,216.339 264.348 C 216.111 264.299,215.871 264.574,215.806 264.961 C 215.636 265.978,214.827 266.829,214.311 266.535 C 214.067 266.395,213.993 266.420,214.146 266.590 C 214.534 267.020,213.720 268.435,213.252 268.146 C 213.043 268.017,212.896 268.056,212.927 268.233 C 213.072 269.065,212.849 269.552,212.440 269.299 C 212.191 269.145,212.094 269.190,212.222 269.398 C 212.530 269.895,211.161 271.968,210.778 271.585 C 210.615 271.422,210.517 271.465,210.561 271.680 C 210.729 272.516,210.528 273.082,210.147 272.846 C 209.926 272.710,209.785 272.743,209.833 272.920 C 210.001 273.540,209.315 275.009,208.961 274.790 C 208.763 274.668,208.718 274.870,208.860 275.239 C 209.048 275.730,208.979 275.824,208.600 275.590 C 208.296 275.402,208.177 275.423,208.311 275.639 C 208.613 276.129,206.464 280.552,206.100 280.189 C 205.945 280.034,205.945 280.238,206.100 280.642 C 206.312 281.194,206.253 281.298,205.865 281.058 C 205.520 280.845,205.441 280.890,205.629 281.193 C 205.981 281.763,205.527 283.285,205.086 283.013 C 204.907 282.902,204.860 283.191,204.981 283.654 C 205.120 284.186,205.050 284.404,204.793 284.245 C 204.569 284.106,204.393 284.211,204.403 284.477 C 204.447 285.701,204.267 286.356,203.943 286.155 C 203.748 286.035,203.688 286.316,203.809 286.779 C 203.973 287.407,203.899 287.541,203.517 287.305 C 203.195 287.107,203.099 287.142,203.258 287.400 C 203.583 287.925,203.124 290.280,202.743 290.045 C 202.586 289.947,202.545 290.328,202.652 290.890 C 202.767 291.492,202.693 291.817,202.471 291.680 C 202.247 291.542,202.166 291.938,202.272 292.654 C 202.375 293.362,202.295 293.766,202.076 293.631 C 201.859 293.497,201.767 293.921,201.856 294.650 C 201.968 295.570,201.905 295.750,201.617 295.333 C 201.340 294.933,201.284 295.276,201.425 296.505 C 201.562 297.692,201.505 298.071,201.245 297.701 C 200.986 297.332,200.923 297.767,201.048 299.068 C 201.152 300.155,201.090 300.778,200.902 300.516 C 200.716 300.254,200.612 301.351,200.663 303.055 C 200.712 304.705,200.627 305.650,200.474 305.156 C 200.321 304.662,200.195 307.002,200.195 310.356 C 200.195 313.711,200.323 316.049,200.479 315.552 C 200.635 315.055,200.703 316.055,200.632 317.773 C 200.550 319.721,200.626 320.604,200.832 320.117 C 201.060 319.579,201.134 319.963,201.070 321.350 C 201.019 322.458,201.132 323.268,201.322 323.150 C 201.512 323.032,201.588 323.479,201.490 324.143 C 201.393 324.806,201.457 325.260,201.633 325.152 C 201.809 325.043,201.953 325.854,201.953 326.953 C 201.953 328.053,201.794 328.854,201.599 328.733 C 201.404 328.613,201.329 328.837,201.432 329.232 C 201.682 330.185,199.908 332.253,198.013 333.220 C 196.354 334.067,193.517 334.287,193.983 333.533 C 194.156 333.253,194.090 333.188,193.807 333.363 C 193.168 333.758,191.730 333.236,192.047 332.724 C 192.202 332.473,192.126 332.414,191.861 332.578 C 191.276 332.939,189.326 330.990,189.688 330.405 C 189.856 330.133,189.792 330.064,189.525 330.229 C 188.993 330.558,188.465 328.775,188.891 328.087 C 189.088 327.768,189.019 327.715,188.680 327.925 C 188.298 328.160,188.219 327.943,188.353 327.029 C 188.451 326.366,188.399 325.903,188.239 326.002 C 187.820 326.262,187.363 322.082,187.648 320.594 C 187.832 319.635,187.789 319.475,187.468 319.922 C 187.161 320.349,187.095 319.345,187.224 316.211 C 187.325 313.759,187.280 312.669,187.119 313.672 C 186.912 314.955,186.835 314.270,186.833 311.133 C 186.831 308.111,186.916 307.300,187.122 308.398 C 187.290 309.301,187.337 308.228,187.231 305.859 C 187.092 302.732,187.155 301.897,187.495 302.344 C 187.857 302.818,187.893 302.757,187.684 302.019 C 187.322 300.735,187.888 295.458,188.315 296.143 C 188.513 296.461,188.550 296.059,188.405 295.154 C 188.252 294.202,188.303 293.717,188.540 293.864 C 188.769 294.005,188.850 293.618,188.744 292.893 C 188.640 292.185,188.721 291.781,188.939 291.916 C 189.158 292.051,189.239 291.647,189.135 290.940 C 189.026 290.203,189.108 289.826,189.344 289.972 C 189.578 290.116,189.654 289.807,189.535 289.188 C 189.388 288.418,189.465 288.243,189.847 288.479 C 190.186 288.688,190.260 288.639,190.070 288.332 C 189.656 287.662,190.212 285.487,190.717 285.799 C 190.965 285.953,191.023 285.874,190.858 285.608 C 190.533 285.081,192.195 279.646,192.604 279.899 C 192.756 279.993,192.873 279.852,192.863 279.586 C 192.815 278.249,193.001 277.708,193.420 277.967 C 193.681 278.129,193.765 278.075,193.620 277.840 C 193.281 277.291,194.126 274.945,194.565 275.216 C 194.756 275.334,194.797 275.130,194.656 274.761 C 194.482 274.309,194.546 274.182,194.851 274.370 C 195.156 274.559,195.220 274.431,195.046 273.980 C 194.858 273.489,194.928 273.395,195.306 273.629 C 195.638 273.834,195.730 273.797,195.563 273.527 C 195.234 272.995,196.094 271.048,196.537 271.322 C 196.718 271.433,196.750 271.223,196.609 270.855 C 196.421 270.364,196.490 270.270,196.869 270.504 C 197.203 270.711,197.293 270.672,197.122 270.396 C 196.785 269.851,198.202 267.483,198.632 267.872 C 198.809 268.033,198.827 267.945,198.673 267.676 C 198.342 267.102,199.350 265.496,199.775 265.920 C 199.934 266.080,200.030 266.035,199.986 265.820 C 199.810 264.948,200.025 264.423,200.451 264.686 C 200.699 264.839,200.797 264.795,200.669 264.587 C 200.390 264.136,201.700 262.015,202.080 262.302 C 202.225 262.411,202.262 262.389,202.162 262.253 C 201.824 261.794,202.766 260.521,203.242 260.794 C 203.500 260.942,203.585 260.924,203.432 260.753 C 203.003 260.279,203.878 258.924,204.414 259.231 C 204.672 259.379,204.757 259.361,204.604 259.191 C 204.175 258.716,205.050 257.361,205.586 257.669 C 205.844 257.817,205.929 257.799,205.776 257.629 C 205.448 257.266,206.478 255.664,207.039 255.664 C 207.249 255.664,207.378 255.569,207.324 255.453 C 207.164 255.108,209.840 251.897,210.084 252.141 C 210.383 252.441,215.247 247.602,215.018 247.232 C 214.817 246.907,217.911 244.346,218.539 244.318 C 218.762 244.308,218.905 244.098,218.855 243.851 C 218.764 243.401,220.556 241.920,221.289 241.840 C 221.504 241.816,221.680 241.615,221.680 241.392 C 221.680 240.841,222.727 240.232,223.186 240.516 C 223.391 240.642,223.444 240.561,223.305 240.336 C 223.057 239.936,224.095 239.258,224.736 239.401 C 224.913 239.440,224.952 239.301,224.823 239.092 C 224.533 238.624,225.949 237.810,226.378 238.197 C 226.549 238.351,226.561 238.257,226.407 237.988 C 226.150 237.542,226.612 237.314,227.470 237.463 C 227.648 237.494,227.693 237.358,227.571 237.162 C 227.330 236.770,229.175 235.417,229.951 235.417 C 230.217 235.417,230.344 235.270,230.233 235.091 C 230.046 234.788,230.637 234.601,231.377 234.729 C 231.554 234.760,231.595 234.618,231.469 234.413 C 231.229 234.025,232.719 233.358,233.398 233.549 C 233.613 233.609,233.658 233.528,233.499 233.368 C 233.074 232.944,234.680 231.936,235.255 232.267 C 235.523 232.421,235.611 232.403,235.452 232.227 C 235.049 231.783,236.615 230.749,237.170 231.092 C 237.470 231.277,237.514 231.197,237.301 230.853 C 237.067 230.475,237.161 230.405,237.652 230.593 C 238.021 230.735,238.223 230.690,238.101 230.492 C 237.881 230.138,239.351 229.452,239.970 229.620 C 240.148 229.668,240.197 229.552,240.080 229.364 C 239.800 228.910,241.735 228.040,242.277 228.376 C 242.547 228.543,242.584 228.450,242.379 228.119 C 242.145 227.740,242.239 227.671,242.730 227.859 C 243.181 228.032,243.309 227.968,243.120 227.664 C 242.932 227.359,243.059 227.295,243.511 227.468 C 243.963 227.642,244.090 227.578,243.902 227.273 C 243.721 226.981,243.829 226.900,244.207 227.045 C 244.543 227.174,244.792 227.052,244.792 226.758 C 244.792 226.464,244.543 226.342,244.207 226.471 C 243.850 226.608,243.723 226.531,243.882 226.275 C 244.050 226.003,243.844 225.932,243.299 226.075 C 242.671 226.239,242.537 226.164,242.773 225.782 C 242.970 225.463,242.936 225.365,242.683 225.521 C 242.135 225.860,239.789 225.015,240.060 224.576 C 240.178 224.384,239.973 224.343,239.605 224.485 C 239.153 224.658,239.026 224.595,239.214 224.290 C 239.403 223.985,239.275 223.921,238.823 224.094 C 238.372 224.268,238.244 224.204,238.433 223.899 C 238.621 223.594,238.494 223.530,238.042 223.704 C 237.590 223.877,237.463 223.813,237.652 223.508 C 237.840 223.203,237.713 223.140,237.261 223.313 C 236.809 223.486,236.682 223.423,236.870 223.118 C 237.059 222.813,236.931 222.749,236.480 222.922 C 236.028 223.096,235.901 223.032,236.089 222.727 C 236.278 222.422,236.150 222.358,235.698 222.532 C 235.208 222.720,235.114 222.650,235.348 222.272 C 235.560 221.928,235.517 221.848,235.217 222.033 C 234.670 222.371,231.518 220.566,231.932 220.151 C 232.094 219.989,232.051 219.906,231.836 219.967 C 231.169 220.154,229.664 219.495,229.897 219.117 C 230.019 218.920,229.818 218.874,229.448 219.016 C 229.063 219.164,228.876 219.115,229.009 218.900 C 229.136 218.695,228.914 218.527,228.516 218.527 C 228.117 218.527,227.880 218.669,227.987 218.843 C 228.287 219.328,227.715 221.518,227.348 221.292 C 227.171 221.182,227.125 221.472,227.246 221.936 C 227.388 222.476,227.317 222.686,227.051 222.521 C 226.785 222.357,226.715 222.567,226.856 223.107 C 226.995 223.639,226.925 223.857,226.668 223.698 C 226.444 223.559,226.268 223.664,226.278 223.930 C 226.323 225.183,226.138 225.806,225.786 225.589 C 225.556 225.447,225.504 225.622,225.657 226.020 C 225.830 226.472,225.766 226.599,225.461 226.411 C 225.157 226.222,225.093 226.350,225.266 226.802 C 225.440 227.253,225.376 227.381,225.071 227.192 C 224.766 227.004,224.702 227.131,224.876 227.583 C 225.049 228.035,224.985 228.162,224.680 227.973 C 224.375 227.785,224.312 227.912,224.485 228.364 C 224.673 228.855,224.604 228.949,224.225 228.715 C 223.881 228.502,223.801 228.546,223.986 228.845 C 224.320 229.386,223.297 230.979,222.882 230.564 C 222.722 230.404,222.627 230.449,222.670 230.664 C 222.839 231.500,222.638 232.066,222.256 231.830 C 222.036 231.694,221.881 231.727,221.912 231.905 C 222.061 232.763,221.833 233.225,221.387 232.968 C 221.118 232.814,221.025 232.827,221.180 232.999 C 221.556 233.415,220.006 235.557,219.412 235.442 C 219.155 235.392,218.981 235.545,219.024 235.782 C 219.113 236.271,216.806 238.626,216.211 238.654 C 215.996 238.664,215.820 238.844,215.820 239.055 C 215.820 239.605,214.218 240.651,213.886 240.318 C 213.732 240.165,213.665 240.303,213.737 240.625 C 213.817 240.984,213.604 241.190,213.188 241.157 C 212.814 241.128,212.605 241.260,212.723 241.450 C 212.930 241.787,212.318 241.971,211.523 241.811 C 211.309 241.767,211.264 241.862,211.423 242.022 C 211.838 242.437,210.245 243.461,209.705 243.126 C 209.455 242.972,209.359 243.018,209.491 243.231 C 209.791 243.717,206.344 245.417,205.774 245.064 C 205.500 244.895,205.462 244.985,205.668 245.319 C 205.902 245.697,205.808 245.767,205.317 245.579 C 204.949 245.437,204.738 245.469,204.850 245.649 C 205.136 246.113,202.140 247.037,201.544 246.668 C 201.204 246.458,201.149 246.521,201.365 246.871 C 201.601 247.253,201.425 247.331,200.656 247.183 C 200.030 247.064,199.727 247.140,199.875 247.379 C 200.022 247.618,199.719 247.694,199.093 247.574 C 198.461 247.453,198.164 247.529,198.315 247.774 C 198.473 248.029,198.020 248.082,197.033 247.924 C 196.181 247.787,195.736 247.821,196.024 248.001 C 196.309 248.178,193.848 248.289,190.556 248.248 C 183.132 248.155,182.718 248.126,182.973 247.713 C 183.087 247.529,182.719 247.466,182.157 247.574 C 181.531 247.694,181.228 247.618,181.375 247.379 C 181.523 247.140,181.220 247.064,180.594 247.183 C 179.938 247.309,179.662 247.232,179.825 246.968 C 179.986 246.708,179.771 246.638,179.236 246.778 C 178.608 246.942,178.474 246.867,178.710 246.486 C 178.921 246.145,178.875 246.067,178.572 246.254 C 177.934 246.649,176.496 246.127,176.812 245.615 C 176.963 245.372,176.893 245.304,176.648 245.455 C 176.078 245.807,172.631 244.107,172.931 243.621 C 173.062 243.409,172.967 243.362,172.717 243.517 C 172.176 243.851,170.583 242.828,170.999 242.413 C 171.158 242.253,171.113 242.158,170.898 242.201 C 170.062 242.370,169.497 242.169,169.733 241.787 C 169.869 241.567,169.835 241.429,169.658 241.480 C 169.043 241.656,167.558 240.584,167.823 240.154 C 167.988 239.888,167.910 239.834,167.618 240.014 C 167.005 240.393,161.187 234.529,161.567 233.914 C 161.729 233.652,161.665 233.581,161.408 233.740 C 160.905 234.051,160.050 232.673,160.463 232.215 C 160.617 232.045,160.530 232.028,160.271 232.177 C 159.728 232.488,158.464 230.356,158.902 229.870 C 159.055 229.701,158.973 229.681,158.720 229.826 C 158.454 229.978,158.159 229.772,158.021 229.338 C 157.890 228.924,157.492 228.351,157.136 228.063 C 156.773 227.768,156.609 227.737,156.762 227.992 C 157.135 228.614,156.654 229.742,156.149 229.430 C 155.910 229.282,155.855 229.364,156.017 229.626 C 156.365 230.190,154.548 233.313,154.105 232.911 C 153.927 232.750,153.891 232.811,154.026 233.047 C 154.300 233.529,152.607 236.034,152.208 235.737 C 152.068 235.632,152.036 235.659,152.137 235.796 C 152.427 236.188,150.790 238.277,150.271 238.176 C 150.015 238.127,149.840 238.280,149.883 238.516 C 149.926 238.753,149.355 239.535,148.614 240.253 C 147.872 240.972,147.266 241.416,147.266 241.240 C 147.266 241.064,147.004 241.137,146.684 241.403 C 146.364 241.668,146.191 242.029,146.300 242.205 C 146.541 242.595,144.914 243.791,144.495 243.532 C 144.330 243.430,144.067 243.552,143.912 243.804 C 143.724 244.108,143.813 244.164,144.178 243.972 C 144.480 243.813,144.287 244.045,143.750 244.489 C 142.769 245.299,142.325 245.472,141.602 245.326 C 141.387 245.283,141.342 245.378,141.501 245.538 C 141.917 245.953,140.324 246.976,139.783 246.642 C 139.483 246.457,139.440 246.537,139.652 246.881 C 139.886 247.260,139.792 247.329,139.302 247.141 C 138.933 247.000,138.723 247.032,138.835 247.213 C 139.109 247.656,137.161 248.516,136.629 248.187 C 136.378 248.032,136.320 248.109,136.486 248.377 C 136.745 248.796,136.204 248.982,134.867 248.934 C 134.601 248.924,134.497 249.100,134.636 249.324 C 134.795 249.582,134.576 249.651,134.045 249.512 C 133.505 249.371,133.294 249.441,133.459 249.707 C 133.624 249.974,133.413 250.044,132.873 249.903 C 132.333 249.761,132.122 249.832,132.287 250.098 C 132.452 250.364,132.241 250.435,131.701 250.293 C 131.171 250.155,130.952 250.224,131.110 250.480 C 131.271 250.741,130.929 250.823,130.154 250.709 C 129.446 250.605,129.043 250.686,129.178 250.904 C 129.313 251.123,128.909 251.204,128.201 251.100 C 127.537 251.002,127.064 251.035,127.149 251.173 C 127.234 251.311,124.861 251.424,121.875 251.424 C 118.889 251.424,116.516 251.311,116.601 251.173 C 116.686 251.035,116.213 251.002,115.549 251.100 C 114.841 251.204,114.437 251.123,114.572 250.904 C 114.707 250.686,114.304 250.605,113.596 250.709 C 112.821 250.823,112.479 250.741,112.640 250.480 C 112.798 250.224,112.579 250.155,112.049 250.293 C 111.509 250.435,111.298 250.364,111.463 250.098 C 111.628 249.832,111.417 249.761,110.877 249.903 C 110.337 250.044,110.126 249.974,110.291 249.707 C 110.456 249.441,110.245 249.371,109.705 249.512 C 109.174 249.651,108.955 249.582,109.114 249.324 C 109.253 249.100,109.149 248.924,108.883 248.934 C 107.629 248.979,107.006 248.794,107.224 248.442 C 107.366 248.213,107.190 248.160,106.792 248.313 C 106.340 248.486,106.213 248.423,106.402 248.118 C 106.590 247.813,106.463 247.749,106.011 247.922 C 105.520 248.111,105.426 248.041,105.660 247.662 C 105.873 247.318,105.829 247.238,105.530 247.423 C 104.991 247.756,102.689 246.483,102.980 246.012 C 103.092 245.832,103.038 245.709,102.861 245.740 C 102.063 245.878,101.538 245.669,101.764 245.303 C 101.900 245.083,101.866 244.928,101.689 244.958 C 100.831 245.108,100.369 244.880,100.626 244.434 C 100.780 244.165,100.767 244.071,100.597 244.225 C 100.140 244.637,98.762 243.783,99.073 243.279 C 99.237 243.014,99.160 242.959,98.874 243.136 C 98.273 243.507,93.230 238.416,93.602 237.814 C 93.761 237.558,93.694 237.489,93.439 237.646 C 93.010 237.911,91.937 236.426,92.114 235.811 C 92.165 235.634,92.027 235.600,91.807 235.736 C 91.440 235.962,91.231 235.437,91.370 234.639 C 91.400 234.462,91.245 234.428,91.025 234.564 C 90.659 234.791,90.450 234.265,90.588 233.467 C 90.619 233.290,90.477 233.249,90.272 233.375 C 89.907 233.601,89.214 232.147,89.385 231.514 C 89.433 231.337,89.262 231.322,89.006 231.480 C 88.685 231.679,88.619 231.560,88.796 231.098 C 88.970 230.647,88.906 230.519,88.601 230.708 C 88.296 230.896,88.232 230.769,88.406 230.317 C 88.579 229.866,88.515 229.738,88.210 229.927 C 87.905 230.115,87.842 229.988,88.015 229.536 C 88.157 229.167,88.112 228.965,87.914 229.087 C 87.450 229.374,86.973 227.880,87.340 227.287 C 87.508 227.015,87.451 226.937,87.198 227.094 C 86.686 227.410,86.164 225.973,86.559 225.334 C 86.745 225.031,86.668 224.985,86.327 225.196 C 85.945 225.432,85.871 225.298,86.035 224.670 C 86.175 224.135,86.105 223.920,85.844 224.081 C 85.581 224.244,85.504 223.968,85.629 223.312 C 85.749 222.686,85.673 222.383,85.434 222.531 C 85.195 222.679,85.119 222.375,85.238 221.750 C 85.357 221.130,85.281 220.821,85.047 220.966 C 84.811 221.112,84.730 220.735,84.838 219.998 C 84.944 219.273,84.863 218.885,84.634 219.027 C 84.394 219.175,84.334 218.409,84.472 216.955 C 84.604 215.568,84.561 214.960,84.365 215.430 C 84.185 215.862,84.027 206.933,84.012 195.433 C 83.992 180.175,83.865 174.581,83.533 174.377 C 83.280 174.220,83.188 174.268,83.323 174.487 C 83.634 174.991,80.696 180.957,80.321 180.582 C 80.165 180.425,80.132 180.556,80.249 180.871 C 80.496 181.542,79.547 184.495,79.197 184.145 C 79.066 184.014,79.063 184.304,79.190 184.788 C 79.363 185.450,79.292 185.590,78.907 185.352 C 78.567 185.142,78.489 185.188,78.674 185.488 C 79.031 186.065,78.529 189.508,78.125 189.258 C 77.959 189.155,77.798 203.087,77.767 220.219 C 77.737 237.350,77.633 251.982,77.537 252.734 C 77.397 253.819,77.425 253.900,77.672 253.125 C 77.883 252.461,78.073 253.722,78.264 257.058 C 78.419 259.758,78.434 262.307,78.298 262.722 C 78.091 263.355,78.124 263.382,78.505 262.891 C 78.861 262.431,78.925 262.794,78.802 264.568 C 78.704 265.962,78.777 266.637,78.992 266.326 C 79.211 266.006,79.296 266.490,79.220 267.638 C 79.154 268.651,79.258 269.360,79.454 269.239 C 79.656 269.114,79.709 269.749,79.578 270.721 C 79.417 271.925,79.466 272.256,79.745 271.855 C 80.028 271.450,80.087 271.760,79.951 272.949 C 79.827 274.041,79.901 274.524,80.168 274.359 C 80.428 274.198,80.510 274.541,80.397 275.315 C 80.293 276.022,80.373 276.426,80.592 276.291 C 80.810 276.156,80.891 276.560,80.787 277.268 C 80.682 277.984,80.763 278.380,80.987 278.242 C 81.208 278.105,81.283 278.429,81.168 279.032 C 81.049 279.651,81.125 279.960,81.359 279.816 C 81.595 279.670,81.677 280.046,81.568 280.783 C 81.463 281.500,81.544 281.895,81.768 281.757 C 81.990 281.620,82.064 281.945,81.949 282.547 C 81.841 283.110,81.886 283.488,82.049 283.388 C 82.468 283.128,83.332 286.975,82.982 287.542 C 82.786 287.859,82.858 287.909,83.204 287.695 C 83.589 287.457,83.659 287.597,83.486 288.259 C 83.360 288.743,83.367 289.028,83.504 288.892 C 83.860 288.536,85.606 294.119,85.295 294.622 C 85.130 294.890,85.222 294.927,85.548 294.726 C 85.930 294.490,86.004 294.624,85.840 295.252 C 85.719 295.716,85.779 295.996,85.974 295.876 C 86.298 295.675,86.478 296.331,86.434 297.554 C 86.424 297.821,86.572 297.942,86.763 297.824 C 87.081 297.628,87.259 298.291,87.215 299.508 C 87.205 299.774,87.336 299.906,87.506 299.801 C 87.917 299.547,88.732 301.930,88.412 302.449 C 88.254 302.703,88.354 302.735,88.678 302.535 C 89.057 302.301,89.126 302.395,88.938 302.886 C 88.765 303.338,88.828 303.465,89.133 303.277 C 89.438 303.088,89.502 303.215,89.329 303.667 C 89.155 304.119,89.219 304.246,89.524 304.058 C 89.829 303.869,89.893 303.997,89.719 304.448 C 89.546 304.900,89.610 305.028,89.915 304.839 C 90.220 304.651,90.283 304.778,90.110 305.230 C 89.937 305.681,90.000 305.809,90.305 305.620 C 90.610 305.432,90.674 305.559,90.501 306.011 C 90.327 306.463,90.391 306.590,90.696 306.402 C 91.001 306.213,91.065 306.340,90.891 306.792 C 90.718 307.244,90.782 307.371,91.086 307.183 C 91.391 306.994,91.455 307.122,91.282 307.573 C 91.108 308.025,91.172 308.153,91.477 307.964 C 91.790 307.771,91.842 307.912,91.647 308.420 C 91.492 308.825,91.490 309.031,91.644 308.877 C 92.050 308.470,93.064 310.077,92.736 310.608 C 92.551 310.907,92.631 310.951,92.975 310.738 C 93.363 310.499,93.421 310.603,93.210 311.154 C 93.055 311.559,93.053 311.765,93.206 311.612 C 93.613 311.205,94.627 312.811,94.298 313.342 C 94.126 313.621,94.192 313.686,94.471 313.514 C 94.896 313.251,95.112 313.776,94.936 314.648 C 94.892 314.863,94.990 314.906,95.152 314.744 C 95.536 314.360,97.687 317.603,97.379 318.101 C 97.250 318.309,97.329 318.367,97.553 318.228 C 97.983 317.962,99.349 319.749,99.349 320.576 C 99.349 320.842,99.487 320.974,99.655 320.870 C 99.931 320.699,100.485 321.443,100.840 322.461 C 100.915 322.676,101.103 322.809,101.258 322.758 C 101.564 322.656,102.503 324.172,102.525 324.805 C 102.533 325.020,102.715 325.201,102.930 325.209 C 103.523 325.230,111.902 333.732,111.769 334.180 C 111.706 334.395,111.778 334.446,111.930 334.294 C 112.304 333.920,114.893 335.932,114.616 336.381 C 114.494 336.578,114.540 336.696,114.717 336.645 C 115.360 336.460,116.816 337.543,116.550 338.008 C 116.402 338.266,116.420 338.351,116.590 338.197 C 117.065 337.769,118.420 338.643,118.112 339.180 C 117.964 339.438,117.983 339.523,118.153 339.369 C 118.582 338.981,119.998 339.795,119.708 340.264 C 119.579 340.473,119.618 340.619,119.795 340.588 C 120.593 340.450,121.119 340.659,120.892 341.025 C 120.756 341.245,120.790 341.400,120.967 341.370 C 121.765 341.231,122.291 341.440,122.064 341.807 C 121.928 342.027,121.962 342.182,122.139 342.151 C 122.937 342.012,123.462 342.222,123.236 342.588 C 123.100 342.808,123.134 342.949,123.311 342.901 C 123.944 342.730,125.398 343.423,125.172 343.788 C 125.045 343.993,125.087 344.135,125.264 344.104 C 126.052 343.967,126.589 344.173,126.370 344.527 C 126.228 344.756,126.403 344.808,126.802 344.656 C 127.263 344.479,127.382 344.544,127.183 344.865 C 127.025 345.122,127.040 345.293,127.217 345.245 C 127.837 345.077,129.306 345.763,129.087 346.117 C 128.965 346.315,129.167 346.360,129.536 346.218 C 130.027 346.030,130.121 346.100,129.887 346.478 C 129.696 346.786,129.719 346.901,129.943 346.763 C 130.433 346.460,137.971 350.180,137.606 350.545 C 137.453 350.698,137.660 350.695,138.064 350.540 C 138.540 350.358,138.710 350.404,138.545 350.671 C 138.404 350.898,138.507 351.076,138.774 351.066 C 140.027 351.021,140.650 351.206,140.432 351.558 C 140.291 351.787,140.466 351.840,140.864 351.687 C 141.286 351.525,141.440 351.583,141.279 351.843 C 141.139 352.070,141.242 352.248,141.508 352.238 C 142.845 352.190,143.386 352.376,143.127 352.795 C 142.953 353.075,143.020 353.140,143.303 352.965 C 143.873 352.613,145.395 353.066,145.122 353.507 C 145.011 353.687,145.300 353.734,145.764 353.613 C 146.392 353.449,146.526 353.523,146.290 353.905 C 146.078 354.248,146.125 354.324,146.432 354.134 C 147.000 353.783,149.691 354.629,149.417 355.073 C 149.307 355.251,149.597 355.297,150.061 355.175 C 150.688 355.011,150.823 355.086,150.587 355.468 C 150.382 355.799,150.423 355.886,150.701 355.714 C 151.336 355.321,154.727 356.261,154.427 356.746 C 154.280 356.984,154.366 357.034,154.637 356.867 C 155.207 356.515,157.499 356.981,157.242 357.397 C 157.139 357.564,157.515 357.612,158.078 357.504 C 158.704 357.384,159.007 357.460,158.859 357.699 C 158.711 357.939,159.014 358.014,159.640 357.895 C 160.266 357.775,160.569 357.851,160.421 358.090 C 160.274 358.329,160.577 358.405,161.203 358.285 C 161.829 358.166,162.132 358.242,161.984 358.481 C 161.836 358.720,162.139 358.796,162.765 358.676 C 163.367 358.561,163.692 358.635,163.555 358.857 C 163.417 359.081,163.813 359.162,164.529 359.057 C 165.237 358.953,165.641 359.033,165.506 359.252 C 165.371 359.470,165.775 359.551,166.482 359.447 C 167.166 359.347,167.592 359.427,167.466 359.632 C 167.339 359.837,167.864 359.933,168.680 359.854 C 169.723 359.753,169.962 359.822,169.552 360.104 C 169.154 360.378,169.501 360.434,170.723 360.294 C 171.961 360.151,172.298 360.208,171.895 360.489 C 171.492 360.770,171.830 360.826,173.067 360.684 C 174.255 360.548,174.634 360.605,174.264 360.864 C 173.895 361.123,174.329 361.186,175.631 361.061 C 176.882 360.941,177.359 361.004,177.018 361.244 C 176.677 361.484,177.217 361.552,178.580 361.441 C 179.855 361.338,180.473 361.406,180.172 361.618 C 179.873 361.829,180.636 361.907,182.125 361.816 C 183.488 361.734,184.366 361.812,184.109 361.993 C 183.852 362.174,184.973 362.278,186.648 362.228 C 188.298 362.179,189.242 362.264,188.744 362.417 C 188.247 362.570,190.883 362.674,194.604 362.647 C 199.392 362.613,200.512 362.678,198.438 362.870 C 195.973 363.098,196.377 363.141,200.977 363.143 C 205.213 363.146,205.873 363.085,203.906 362.872 C 202.139 362.681,203.227 362.613,207.484 362.647 C 210.847 362.673,213.396 362.553,213.148 362.380 C 212.899 362.206,213.961 362.123,215.509 362.196 C 217.057 362.269,218.140 362.215,217.916 362.077 C 217.357 361.731,223.476 361.228,224.429 361.541 C 225.071 361.752,225.100 361.718,224.609 361.335 C 224.147 360.974,224.424 360.917,225.932 361.061 C 227.233 361.186,227.668 361.123,227.299 360.864 C 226.929 360.605,227.308 360.548,228.495 360.684 C 229.718 360.825,230.065 360.769,229.667 360.495 C 229.257 360.213,229.496 360.144,230.539 360.245 C 231.378 360.326,231.881 360.229,231.748 360.014 C 231.609 359.790,232.122 359.741,233.045 359.889 C 234.162 360.069,234.414 360.025,233.984 359.727 C 233.537 359.416,233.694 359.356,234.647 359.472 C 235.376 359.561,235.800 359.469,235.666 359.252 C 235.531 359.033,235.935 358.953,236.643 359.057 C 237.306 359.154,237.772 359.109,237.678 358.957 C 237.439 358.569,240.149 358.104,240.692 358.440 C 240.948 358.598,241.030 358.542,240.884 358.306 C 240.584 357.821,243.159 357.252,243.817 357.659 C 244.078 357.820,244.154 357.760,244.002 357.514 C 243.690 357.009,245.865 356.453,246.535 356.867 C 246.844 357.058,246.891 356.983,246.679 356.639 C 246.443 356.258,246.577 356.183,247.205 356.347 C 247.745 356.489,247.956 356.418,247.791 356.152 C 247.626 355.886,247.837 355.815,248.377 355.957 C 248.917 356.098,249.128 356.028,248.963 355.761 C 248.798 355.495,249.009 355.425,249.549 355.566 C 250.089 355.707,250.299 355.637,250.135 355.371 C 249.970 355.104,250.181 355.034,250.721 355.175 C 251.184 355.297,251.485 355.268,251.389 355.113 C 251.126 354.688,253.826 353.814,254.392 354.140 C 254.662 354.295,254.745 354.271,254.576 354.085 C 254.189 353.660,257.723 352.242,258.293 352.594 C 258.563 352.761,258.600 352.669,258.395 352.338 C 258.155 351.950,258.259 351.891,258.811 352.103 C 259.215 352.258,259.417 352.256,259.259 352.097 C 258.876 351.714,261.294 350.714,261.819 351.039 C 262.078 351.199,262.112 351.101,261.910 350.775 C 261.676 350.396,261.770 350.327,262.261 350.515 C 262.713 350.688,262.840 350.625,262.652 350.320 C 262.463 350.015,262.590 349.951,263.042 350.124 C 263.494 350.298,263.621 350.234,263.433 349.929 C 263.244 349.624,263.372 349.560,263.823 349.734 C 264.275 349.907,264.403 349.843,264.214 349.539 C 264.026 349.234,264.153 349.170,264.605 349.343 C 265.056 349.517,265.184 349.453,264.995 349.148 C 264.807 348.843,264.934 348.779,265.386 348.953 C 265.838 349.126,265.965 349.062,265.777 348.757 C 265.588 348.452,265.715 348.389,266.167 348.562 C 266.619 348.735,266.746 348.672,266.558 348.367 C 266.364 348.054,266.505 348.001,267.014 348.196 C 267.419 348.352,267.624 348.353,267.470 348.199 C 267.076 347.805,269.486 346.410,270.006 346.732 C 270.252 346.884,270.322 346.817,270.172 346.573 C 269.908 346.145,271.343 345.454,272.070 345.658 C 272.285 345.719,272.328 345.636,272.166 345.474 C 271.782 345.090,276.196 342.156,276.694 342.464 C 276.904 342.594,276.949 342.497,276.795 342.248 C 276.542 341.838,277.029 341.616,277.861 341.760 C 278.038 341.791,278.077 341.645,277.948 341.436 C 277.658 340.967,279.074 340.153,279.503 340.541 C 279.674 340.695,279.686 340.601,279.532 340.332 C 279.275 339.886,279.737 339.658,280.595 339.807 C 280.773 339.838,280.812 339.692,280.682 339.482 C 280.440 339.090,281.974 338.043,282.549 338.208 C 282.726 338.259,282.765 338.129,282.635 337.920 C 282.410 337.556,283.751 336.586,284.570 336.520 C 284.785 336.502,284.921 336.288,284.872 336.043 C 284.823 335.799,285.482 335.045,286.337 334.368 C 287.191 333.691,287.891 333.273,287.891 333.439 C 287.891 333.604,288.412 333.241,289.049 332.630 C 289.686 332.020,290.132 331.400,290.040 331.252 C 289.830 330.912,292.363 328.430,292.639 328.706 C 292.751 328.819,293.162 328.558,293.553 328.127 C 293.943 327.696,294.138 327.344,293.986 327.344 C 293.834 327.344,294.175 326.734,294.744 325.989 C 295.312 325.244,295.957 324.672,296.176 324.719 C 296.396 324.766,296.629 324.488,296.694 324.102 C 296.853 323.149,297.663 322.224,298.101 322.494 C 298.297 322.615,298.425 322.569,298.385 322.392 C 298.238 321.730,298.927 320.717,299.357 320.963 C 299.603 321.104,299.679 321.080,299.525 320.910 C 299.176 320.522,299.929 319.050,300.345 319.308 C 300.513 319.412,300.651 319.279,300.651 319.014 C 300.651 318.238,302.005 316.392,302.396 316.634 C 302.593 316.755,302.729 316.710,302.698 316.533 C 302.559 315.735,302.769 315.209,303.135 315.436 C 303.355 315.572,303.510 315.538,303.479 315.361 C 303.340 314.563,303.550 314.038,303.916 314.264 C 304.136 314.400,304.291 314.366,304.260 314.189 C 304.129 313.432,304.322 312.860,304.643 313.059 C 304.834 313.176,304.966 312.967,304.936 312.593 C 304.907 312.218,305.114 311.962,305.400 312.021 C 305.685 312.080,305.813 311.959,305.685 311.752 C 305.369 311.241,306.820 308.912,307.225 309.279 C 307.402 309.439,307.427 309.361,307.281 309.106 C 306.963 308.551,308.342 306.129,308.746 306.532 C 308.900 306.686,308.899 306.481,308.743 306.076 C 308.548 305.568,308.601 305.427,308.914 305.620 C 309.218 305.809,309.282 305.681,309.109 305.230 C 308.921 304.739,308.990 304.645,309.369 304.879 C 309.698 305.082,309.793 305.047,309.629 304.783 C 309.292 304.237,309.749 303.068,310.193 303.343 C 310.383 303.460,310.422 303.255,310.281 302.886 C 310.107 302.434,310.171 302.307,310.476 302.495 C 310.781 302.684,310.845 302.556,310.671 302.105 C 310.483 301.614,310.553 301.520,310.931 301.754 C 311.258 301.956,311.355 301.922,311.195 301.663 C 310.870 301.138,311.870 298.719,312.254 299.103 C 312.412 299.261,312.414 299.059,312.259 298.654 C 312.047 298.103,312.106 297.999,312.494 298.238 C 312.840 298.452,312.918 298.407,312.730 298.104 C 312.382 297.539,312.830 296.010,313.265 296.279 C 313.440 296.387,313.576 296.258,313.566 295.992 C 313.522 294.768,313.702 294.113,314.026 294.313 C 314.221 294.434,314.281 294.153,314.160 293.689 C 314.010 293.116,314.083 292.935,314.387 293.123 C 314.657 293.290,314.762 293.198,314.651 292.891 C 314.422 292.259,316.565 285.836,316.895 286.166 C 317.027 286.297,317.031 286.009,316.904 285.524 C 316.762 284.979,316.825 284.737,317.070 284.888 C 317.315 285.040,317.391 284.743,317.270 284.110 C 317.144 283.454,317.221 283.178,317.485 283.341 C 317.746 283.502,317.815 283.287,317.675 282.752 C 317.540 282.235,317.608 282.004,317.851 282.154 C 318.096 282.305,318.172 282.009,318.051 281.375 C 317.904 280.606,317.981 280.430,318.363 280.666 C 318.700 280.875,318.776 280.827,318.588 280.523 C 318.252 279.980,319.136 275.732,319.534 275.978 C 319.685 276.072,319.721 275.688,319.613 275.125 C 319.466 274.356,319.544 274.180,319.926 274.416 C 320.266 274.627,320.338 274.577,320.146 274.265 C 319.801 273.707,320.264 270.627,320.656 270.869 C 320.807 270.963,320.868 270.392,320.792 269.602 C 320.691 268.559,320.760 268.319,321.042 268.730 C 321.316 269.128,321.372 268.781,321.231 267.558 C 321.073 266.180,321.126 265.942,321.490 266.406 C 321.877 266.900,321.910 266.875,321.704 266.245 C 321.383 265.263,321.900 260.736,322.266 261.328 C 322.421 261.579,322.472 260.847,322.379 259.701 C 322.272 258.387,322.340 257.804,322.564 258.122 C 322.788 258.442,322.870 257.796,322.785 256.365 C 322.712 255.120,322.785 254.404,322.947 254.773 C 323.382 255.763,323.130 239.888,322.640 235.440 C 322.408 233.340,322.329 231.231,322.463 230.752 C 322.621 230.190,322.585 230.058,322.360 230.380 C 321.928 230.999,320.979 226.197,321.323 225.136 C 321.523 224.523,321.489 224.503,321.100 225.000 C 320.725 225.480,320.673 225.394,320.811 224.524 C 320.914 223.877,320.828 223.556,320.590 223.703 C 320.351 223.850,320.275 223.547,320.395 222.921 C 320.516 222.288,320.440 221.992,320.195 222.143 C 319.952 222.293,319.884 222.062,320.019 221.545 C 320.160 221.005,320.090 220.794,319.824 220.959 C 319.558 221.124,319.487 220.913,319.629 220.373 C 319.770 219.833,319.700 219.622,319.433 219.787 C 319.167 219.952,319.097 219.741,319.238 219.201 C 319.379 218.661,319.309 218.451,319.043 218.615 C 318.776 218.780,318.706 218.569,318.847 218.029 C 318.969 217.566,318.908 217.285,318.714 217.405 C 318.389 217.606,318.210 216.951,318.254 215.727 C 318.263 215.461,318.115 215.339,317.925 215.457 C 317.607 215.653,317.429 214.990,317.472 213.774 C 317.482 213.507,317.304 213.404,317.077 213.545 C 316.817 213.705,316.759 213.552,316.921 213.130 C 317.095 212.678,317.031 212.551,316.726 212.739 C 316.421 212.928,316.357 212.800,316.531 212.348 C 316.672 211.980,316.640 211.770,316.459 211.882 C 316.016 212.155,315.156 210.208,315.485 209.676 C 315.631 209.440,315.565 209.366,315.336 209.508 C 314.843 209.812,314.343 208.697,314.708 208.108 C 314.871 207.843,314.776 207.808,314.447 208.012 C 314.059 208.251,314.000 208.147,314.212 207.596 C 314.367 207.191,314.369 206.985,314.216 207.138 C 313.799 207.555,312.801 205.935,313.126 205.370 C 313.280 205.102,313.262 205.014,313.086 205.173 C 312.667 205.553,311.599 204.025,311.920 203.505 C 312.056 203.285,311.935 203.154,311.650 203.213 C 311.364 203.272,311.157 203.017,311.186 202.641 C 311.216 202.267,311.103 202.046,310.936 202.149 C 310.585 202.366,309.245 200.454,309.245 199.736 C 309.245 199.471,309.107 199.338,308.939 199.442 C 308.601 199.651,307.592 198.042,307.739 197.530 C 307.790 197.352,307.661 197.313,307.451 197.443 C 307.111 197.653,306.572 196.993,306.191 195.898 C 306.116 195.684,305.939 195.546,305.799 195.593 C 305.466 195.704,303.493 193.121,303.730 192.884 C 303.830 192.785,303.514 192.368,303.030 191.957 L 302.148 191.211 302.924 192.188 C 303.583 193.019,303.513 192.995,302.449 192.030 C 301.762 191.406,301.308 190.720,301.441 190.505 C 301.574 190.290,301.504 190.225,301.284 190.360 C 300.862 190.621,299.468 189.334,299.806 188.996 C 299.915 188.887,299.652 188.478,299.221 188.088 C 298.790 187.698,298.438 187.506,298.438 187.661 C 298.438 187.816,297.648 187.296,296.684 186.506 C 295.719 185.715,295.014 184.933,295.117 184.766 C 295.220 184.600,295.042 184.246,294.722 183.981 C 294.402 183.715,294.141 183.614,294.141 183.755 C 294.141 183.896,293.784 183.821,293.348 183.588 C 292.913 183.355,292.676 182.970,292.823 182.733 C 292.969 182.495,292.915 182.409,292.702 182.541 C 292.137 182.890,290.564 181.671,290.876 181.126 C 291.022 180.872,291.002 180.790,290.832 180.943 C 290.374 181.356,288.996 180.502,289.307 179.998 C 289.454 179.761,289.397 179.676,289.181 179.809 C 288.763 180.068,286.207 178.377,286.529 178.055 C 286.633 177.950,286.494 177.865,286.218 177.865 C 285.487 177.865,283.568 176.529,283.788 176.173 C 283.891 176.006,283.670 175.894,283.297 175.923 C 282.921 175.953,282.665 175.745,282.725 175.459 C 282.784 175.175,282.655 175.051,282.438 175.185 C 281.935 175.496,279.204 173.661,279.592 173.273 C 279.752 173.113,279.707 173.017,279.492 173.061 C 278.716 173.217,278.083 173.040,278.280 172.721 C 278.391 172.542,278.264 172.396,277.998 172.396 C 277.303 172.396,275.365 171.061,275.572 170.726 C 275.668 170.570,275.529 170.443,275.264 170.443 C 274.546 170.443,272.634 169.103,272.851 168.751 C 272.954 168.584,272.733 168.472,272.359 168.501 C 271.942 168.534,271.730 168.328,271.810 167.969 C 271.882 167.646,271.814 167.508,271.661 167.662 C 271.265 168.058,269.851 167.228,270.135 166.768 C 270.265 166.558,270.226 166.412,270.049 166.443 C 269.190 166.592,268.728 166.364,268.985 165.918 C 269.139 165.649,269.127 165.555,268.957 165.709 C 268.482 166.137,267.127 165.263,267.434 164.726 C 267.582 164.469,267.564 164.383,267.394 164.537 C 266.965 164.925,265.549 164.111,265.838 163.643 C 265.968 163.433,265.929 163.287,265.752 163.318 C 264.919 163.462,264.433 163.240,264.686 162.830 C 264.844 162.575,264.794 162.484,264.572 162.622 C 264.122 162.900,261.630 161.190,261.919 160.802 C 262.024 160.662,261.998 160.629,261.863 160.728 C 261.421 161.053,260.127 160.130,260.401 159.686 C 260.548 159.448,260.491 159.363,260.275 159.497 C 259.777 159.805,257.333 158.032,257.720 157.644 C 257.878 157.486,257.832 157.392,257.617 157.436 C 256.718 157.617,256.219 157.396,256.485 156.934 C 256.639 156.665,256.627 156.571,256.457 156.725 C 256.057 157.085,254.601 156.315,254.868 155.884 C 254.979 155.704,254.764 155.581,254.390 155.611 C 254.017 155.640,253.755 155.444,253.809 155.176 C 253.862 154.907,253.774 154.708,253.613 154.734 C 252.828 154.858,252.323 154.647,252.545 154.287 C 252.681 154.067,252.648 153.912,252.470 153.943 C 251.673 154.081,251.147 153.872,251.373 153.506 C 251.509 153.286,251.476 153.131,251.299 153.162 C 250.501 153.300,249.975 153.091,250.201 152.725 C 250.337 152.505,250.304 152.350,250.127 152.380 C 249.329 152.519,248.803 152.310,249.029 151.943 C 249.165 151.723,249.132 151.568,248.955 151.599 C 248.198 151.731,247.626 151.537,247.824 151.216 C 247.942 151.025,247.733 150.894,247.359 150.923 C 246.985 150.952,246.724 150.757,246.777 150.488 C 246.831 150.220,246.743 150.021,246.582 150.046 C 245.763 150.176,245.296 149.952,245.545 149.549 C 245.718 149.270,245.652 149.204,245.374 149.376 C 244.842 149.705,243.236 148.691,243.643 148.284 C 243.796 148.131,243.590 148.133,243.186 148.288 C 242.667 148.487,242.535 148.433,242.738 148.104 C 242.897 147.847,242.882 147.676,242.705 147.724 C 242.085 147.892,240.616 147.206,240.835 146.851 C 240.957 146.654,240.755 146.609,240.386 146.751 C 239.934 146.924,239.807 146.860,239.995 146.555 C 240.184 146.250,240.056 146.187,239.605 146.360 C 239.114 146.548,239.020 146.479,239.254 146.100 C 239.456 145.774,239.422 145.676,239.163 145.836 C 238.678 146.136,236.204 145.176,236.556 144.825 C 236.688 144.692,236.400 144.688,235.915 144.815 C 235.345 144.964,235.125 144.898,235.291 144.629 C 235.456 144.363,235.245 144.293,234.705 144.434 C 234.222 144.560,233.960 144.496,234.091 144.284 C 234.225 144.067,233.723 143.971,232.883 144.052 C 231.794 144.157,231.587 144.092,232.031 143.781 C 232.354 143.556,232.441 143.391,232.227 143.415 C 232.012 143.439,230.693 143.610,229.297 143.795 M164.063 236.914 C 164.791 237.666,165.476 238.281,165.583 238.281 C 165.690 238.281,165.182 237.666,164.453 236.914 C 163.724 236.162,163.040 235.547,162.933 235.547 C 162.825 235.547,163.334 236.162,164.063 236.914 M323.563 243.750 C 323.563 245.146,323.633 245.718,323.720 245.020 C 323.807 244.321,323.807 243.179,323.720 242.480 C 323.633 241.782,323.563 242.354,323.563 243.750 M214.844 247.376 C 214.844 247.436,213.745 248.535,212.402 249.817 L 209.961 252.148 212.292 249.707 C 214.458 247.439,214.844 247.087,214.844 247.376 M191.313 248.706 C 190.940 248.804,190.237 248.807,189.751 248.714 C 189.265 248.620,189.570 248.540,190.430 248.536 C 191.289 248.532,191.687 248.608,191.313 248.706 M122.754 251.838 C 122.271 251.931,121.479 251.931,120.996 251.838 C 120.513 251.745,120.908 251.669,121.875 251.669 C 122.842 251.669,123.237 251.745,122.754 251.838 " stroke="none" fill="#0c3b74" fill-rule="evenodd"></path><path id="path3" d="M257.643 27.579 C 249.023 29.664,241.904 36.597,239.206 45.532 C 238.555 47.688,238.497 50.810,238.382 89.849 L 238.258 131.846 241.058 132.800 C 247.284 134.919,257.654 141.551,275.586 154.881 C 280.568 158.585,290.500 165.625,290.744 165.625 C 290.786 165.625,290.732 139.302,290.624 107.129 L 290.427 48.633 289.505 45.898 C 284.896 32.228,271.134 24.316,257.643 27.579 M269.104 27.922 C 279.019 30.008,286.508 36.948,289.343 46.680 C 290.045 49.089,290.685 164.453,289.996 164.453 C 289.527 164.453,283.511 160.320,277.734 156.028 C 274.619 153.714,270.840 150.910,269.336 149.796 C 257.340 140.913,247.016 134.557,241.102 132.416 L 238.648 131.527 238.758 89.689 L 238.867 47.852 239.781 45.117 C 244.061 32.303,256.171 25.202,269.104 27.922 M225.735 144.078 C 210.772 149.038,203.851 166.682,210.749 182.279 C 216.496 195.274,236.267 210.215,260.244 219.683 C 267.152 222.410,268.750 223.743,268.750 226.778 C 268.750 230.548,267.404 231.762,259.947 234.717 C 220.022 250.539,199.522 276.698,200.062 311.133 C 200.106 313.944,200.179 313.434,200.425 308.594 C 202.198 273.710,222.207 249.294,260.938 234.753 C 267.558 232.268,269.141 230.750,269.141 226.887 C 269.141 223.355,267.883 222.297,259.927 219.135 C 236.633 209.878,217.468 195.577,211.561 183.043 C 204.227 167.484,210.285 150.448,225.195 144.698 C 232.609 141.840,240.470 145.544,265.039 163.471 C 269.121 166.450,275.713 171.085,279.688 173.772 C 317.214 199.141,328.357 224.323,321.071 267.294 C 311.808 321.922,276.615 355.080,221.094 361.489 C 218.193 361.824,215.205 362.167,214.453 362.252 C 213.701 362.336,214.771 362.333,216.830 362.244 C 264.709 360.177,304.081 329.984,317.202 285.274 C 331.934 235.072,321.490 201.268,283.398 175.859 C 280.605 173.996,273.047 168.703,266.602 164.097 C 239.317 144.597,233.203 141.602,225.735 144.078 M83.984 173.633 C 83.877 173.848,83.886 184.043,84.004 196.289 L 84.219 218.555 85.227 222.270 C 89.561 238.234,105.313 252.003,118.678 251.509 C 119.626 251.474,119.784 251.408,119.141 251.316 C 108.799 249.835,103.016 247.112,96.433 240.625 C 90.786 235.059,87.464 229.330,85.447 221.680 C 84.669 218.728,84.611 217.299,84.401 195.898 C 84.279 183.438,84.092 173.418,83.984 173.633 M81.485 178.162 C 77.333 186.998,77.248 188.002,77.455 226.026 C 77.632 258.686,77.902 264.315,79.668 272.266 L 80.059 274.023 79.855 272.070 C 79.743 270.996,79.407 268.184,79.108 265.820 C 77.876 256.066,77.676 248.738,77.836 219.336 C 78.020 185.613,77.941 186.391,82.059 177.952 C 82.891 176.245,83.491 174.767,83.392 174.668 C 83.293 174.569,82.434 176.141,81.485 178.162 M227.871 218.265 C 228.233 218.851,225.507 226.124,223.807 229.105 C 218.010 239.274,206.845 246.633,195.117 248.014 C 192.916 248.273,192.716 248.346,194.092 248.387 C 207.243 248.777,223.180 235.878,227.574 221.289 C 227.962 220.000,228.328 218.877,228.387 218.793 C 228.446 218.709,230.037 219.525,231.923 220.607 C 236.076 222.988,240.177 225.034,242.674 225.972 L 244.528 226.668 239.745 229.279 C 212.213 244.310,194.217 266.409,188.909 291.703 C 187.776 297.099,186.979 303.566,187.211 305.480 C 187.356 306.676,187.382 306.626,187.437 305.053 C 188.330 279.589,202.910 254.745,226.989 237.658 C 230.837 234.927,239.887 229.297,240.428 229.297 C 240.529 229.297,241.674 228.708,242.973 227.988 L 245.335 226.679 241.819 225.205 C 239.886 224.394,235.981 222.434,233.142 220.850 C 227.860 217.902,227.554 217.752,227.871 218.265 M155.664 230.174 C 149.906 241.583,138.527 249.476,125.195 251.309 C 124.551 251.397,125.078 251.409,126.367 251.335 C 137.171 250.714,149.215 242.350,155.706 230.960 L 157.343 228.087 158.530 230.157 C 164.371 240.345,176.240 247.659,188.472 248.611 C 193.210 248.979,192.585 248.627,187.538 248.084 C 175.072 246.742,164.119 239.611,158.317 229.060 L 157.227 227.077 155.664 230.174 M120.996 251.838 C 121.479 251.931,122.271 251.931,122.754 251.838 C 123.237 251.745,122.842 251.669,121.875 251.669 C 120.908 251.669,120.513 251.745,120.996 251.838 M80.112 274.805 C 80.034 277.263,83.494 289.844,86.129 296.680 C 101.723 337.133,141.749 361.726,193.555 362.684 L 201.367 362.829 193.750 362.501 C 131.982 359.840,93.108 330.954,81.250 278.906 C 80.638 276.221,80.126 274.375,80.112 274.805 M186.777 310.037 C 186.700 314.260,187.381 322.461,188.134 326.367 C 190.370 337.977,203.466 335.907,201.596 324.240 C 201.336 322.617,200.968 319.795,200.779 317.969 L 200.435 314.648 200.623 318.555 C 200.727 320.703,200.976 323.164,201.178 324.023 C 202.601 330.097,198.625 334.827,193.408 333.264 C 189.241 332.015,187.962 327.778,187.140 312.500 C 186.906 308.138,186.822 307.572,186.777 310.037 M204.199 362.790 C 205.757 362.864,208.306 362.864,209.863 362.790 C 211.421 362.716,210.146 362.655,207.031 362.655 C 203.916 362.655,202.642 362.716,204.199 362.790 " stroke="none" fill="#040424" fill-rule="evenodd"></path><path id="path4" d="M262.598 26.842 C 263.188 26.932,264.155 26.932,264.746 26.842 C 265.337 26.753,264.854 26.680,263.672 26.680 C 262.490 26.680,262.007 26.753,262.598 26.842 M290.724 162.695 C 290.728 163.555,290.808 163.860,290.901 163.374 C 290.995 162.888,290.991 162.185,290.893 161.812 C 290.796 161.438,290.719 161.836,290.724 162.695 M84.557 194.141 C 84.557 205.635,84.607 210.337,84.668 204.590 C 84.729 198.843,84.729 189.438,84.668 183.691 C 84.607 177.944,84.557 182.646,84.557 194.141 M217.358 237.207 L 216.211 238.477 217.480 237.329 C 218.179 236.698,218.750 236.127,218.750 236.060 C 218.750 235.758,218.428 236.024,217.358 237.207 M148.218 239.941 L 147.070 241.211 148.340 240.064 C 149.523 238.994,149.789 238.672,149.487 238.672 C 149.420 238.672,148.849 239.243,148.218 239.941 M187.200 310.938 C 187.200 311.689,187.280 311.997,187.379 311.621 C 187.477 311.245,187.477 310.630,187.379 310.254 C 187.280 309.878,187.200 310.186,187.200 310.938 M106.836 329.688 C 108.112 330.977,109.243 332.031,109.351 332.031 C 109.458 332.031,108.502 330.977,107.227 329.688 C 105.951 328.398,104.819 327.344,104.712 327.344 C 104.605 327.344,105.560 328.398,106.836 329.688 M193.848 363.160 C 194.224 363.258,194.839 363.258,195.215 363.160 C 195.591 363.062,195.283 362.981,194.531 362.981 C 193.779 362.981,193.472 363.062,193.848 363.160 M206.938 363.167 C 207.424 363.260,208.127 363.257,208.501 363.159 C 208.874 363.061,208.477 362.985,207.617 362.989 C 206.758 362.993,206.452 363.073,206.938 363.167 " stroke="none" fill="#84a4c3" fill-rule="evenodd"></path></g></svg>